<?xml version="1.0" encoding="UTF-8"?>
<!DOCTYPE svg PUBLIC "-//W3C//DTD SVG 1.1//EN" "http://www.w3.org/Graphics/SVG/1.1/DTD/svg11.dtd">
<svg xmlns="http://www.w3.org/2000/svg" version="1.1" width="1024px" height="1024px" style="shape-rendering:geometricPrecision; text-rendering:geometricPrecision; image-rendering:optimizeQuality; fill-rule:evenodd; clip-rule:evenodd" xmlns:xlink="http://www.w3.org/1999/xlink">
<g><path style="opacity:1" fill="#fefdfa" d="M -0.5,-0.5 C 340.833,-0.5 682.167,-0.5 1023.5,-0.5C 1023.5,340.833 1023.5,682.167 1023.5,1023.5C 682.167,1023.5 340.833,1023.5 -0.5,1023.5C -0.5,682.167 -0.5,340.833 -0.5,-0.5 Z"/></g>
<g><path style="opacity:1" fill="#d7f4e9" d="M 271.5,152.5 C 288.5,152.5 305.5,152.5 322.5,152.5C 322.5,168.833 322.5,185.167 322.5,201.5C 334.505,201.333 346.505,201.5 358.5,202C 357.509,216.755 357.176,231.588 357.5,246.5C 343.5,246.5 329.5,246.5 315.5,246.5C 315.5,233.167 315.5,219.833 315.5,206.5C 300.833,206.5 286.167,206.5 271.5,206.5C 271.5,188.5 271.5,170.5 271.5,152.5 Z"/></g>
<g><path style="opacity:1" fill="#e9c046" d="M 753.5,218.5 C 751.833,218.5 750.167,218.5 748.5,218.5C 741.833,218.5 735.167,218.5 728.5,218.5C 728.5,214.5 728.5,210.5 728.5,206.5C 728.5,204.167 728.5,201.833 728.5,199.5C 728.5,193.833 728.5,188.167 728.5,182.5C 739.552,182.189 750.552,182.522 761.5,183.5C 762.666,194.819 762.832,206.152 762,217.5C 759.281,218.444 756.448,218.777 753.5,218.5 Z"/></g>
<g><path style="opacity:1" fill="#d4f3e8" d="M 384.5,184.5 C 388.5,184.5 392.5,184.5 396.5,184.5C 396.5,188.5 396.5,192.5 396.5,196.5C 392.5,196.5 388.5,196.5 384.5,196.5C 384.5,192.5 384.5,188.5 384.5,184.5 Z"/></g>
<g><path style="opacity:1" fill="#fefcf7" d="M 734.5,190.5 C 742.167,190.5 749.833,190.5 757.5,190.5C 757.5,197.833 757.5,205.167 757.5,212.5C 749.833,212.5 742.167,212.5 734.5,212.5C 734.5,205.167 734.5,197.833 734.5,190.5 Z"/></g>
<g><path style="opacity:1" fill="#99f2df" d="M 687.5,200.5 C 700.99,199.504 714.656,199.171 728.5,199.5C 728.5,201.833 728.5,204.167 728.5,206.5C 710.992,206.83 693.659,206.497 676.5,205.5C 693.503,205.667 710.503,205.5 727.5,205C 710.837,204.5 694.17,204.333 677.5,204.5C 677.5,203.5 677.5,202.5 677.5,201.5C 694.17,201.667 710.837,201.5 727.5,201C 714.171,200.5 700.837,200.333 687.5,200.5 Z"/></g>
<g><path style="opacity:1" fill="#5fecd0" d="M 687.5,200.5 C 700.837,200.333 714.171,200.5 727.5,201C 710.837,201.5 694.17,201.667 677.5,201.5C 677.5,202.5 677.5,203.5 677.5,204.5C 694.17,204.333 710.837,204.5 727.5,205C 710.503,205.5 693.503,205.667 676.5,205.5C 676.5,203.833 676.5,202.167 676.5,200.5C 680.167,200.5 683.833,200.5 687.5,200.5 Z"/></g>
<g><path style="opacity:1" fill="#fdfcfa" d="M 321.5,208.5 C 331.833,208.5 342.167,208.5 352.5,208.5C 352.5,219.167 352.5,229.833 352.5,240.5C 342.167,240.5 331.833,240.5 321.5,240.5C 321.5,229.833 321.5,219.167 321.5,208.5 Z"/></g>
<g><path style="opacity:1" fill="#3ed4c5" d="M 524.5,113.5 C 532.315,123.409 537.148,134.742 539,147.5C 543.849,175.285 538.516,200.952 523,224.5C 508.063,246.508 492.23,267.174 475.5,286.5C 485.902,261.459 496.402,236.459 507,211.5C 511.086,200.746 514.252,189.746 516.5,178.5C 519.436,173.351 520.269,167.684 519,161.5C 518.29,160.027 517.124,159.36 515.5,159.5C 515.43,154.392 516.097,149.392 517.5,144.5C 517.291,143.914 516.957,143.414 516.5,143C 518.545,135.222 519.879,127.222 520.5,119C 520.043,118.586 519.709,118.086 519.5,117.5C 520.752,115.999 521.752,114.332 522.5,112.5C 523.183,112.863 523.85,113.196 524.5,113.5 Z"/></g>
<g><path style="opacity:1" fill="#2bc8c0" d="M 524.5,113.5 C 523.85,113.196 523.183,112.863 522.5,112.5C 521.752,114.332 520.752,115.999 519.5,117.5C 519.709,118.086 520.043,118.586 520.5,119C 519.879,127.222 518.545,135.222 516.5,143C 516.957,143.414 517.291,143.914 517.5,144.5C 516.097,149.392 515.43,154.392 515.5,159.5C 517.124,159.36 518.29,160.027 519,161.5C 520.269,167.684 519.436,173.351 516.5,178.5C 517.725,173.217 518.225,167.883 518,162.5C 501.181,190.976 483.181,218.642 464,245.5C 453.866,262.434 445.366,280.101 438.5,298.5C 438.117,296.592 437.117,295.092 435.5,294C 436.293,292.915 436.96,291.748 437.5,290.5C 435.713,289.684 434.046,288.684 432.5,287.5C 432.167,287.667 431.833,287.833 431.5,288C 433.848,289.688 434.015,291.522 432,293.5C 429.457,292.124 429.291,290.957 431.5,290C 428.584,287.929 428.918,286.595 432.5,286C 432.167,285.667 431.833,285.333 431.5,285C 434.15,281.793 433.984,281.293 431,283.5C 429.979,280.895 429.145,278.228 428.5,275.5C 428.968,273.866 429.968,272.7 431.5,272C 430.833,271.333 430.167,270.667 429.5,270C 430.833,269 430.833,268 429.5,267C 432.028,265.684 432.028,264.517 429.5,263.5C 430.729,262.719 432.062,262.219 433.5,262C 432.833,261.667 432.167,261.333 431.5,261C 432.833,260.333 432.833,259.667 431.5,259C 432.167,258.667 432.833,258.333 433.5,258C 432.044,257.577 431.544,256.744 432,255.5C 434.929,257.184 437.762,256.684 440.5,254C 437.734,253.309 437.067,251.809 438.5,249.5C 440.012,248.138 441.512,247.804 443,248.5C 443.318,246.939 444.151,245.772 445.5,245C 443.892,244.342 442.725,244.842 442,246.5C 440.156,244.829 439.49,242.829 440,240.5C 440.423,241.956 441.256,242.456 442.5,242C 441.833,240.667 441.167,239.333 440.5,238C 441.167,237.667 441.833,237.333 442.5,237C 440.893,235.951 440.227,234.451 440.5,232.5C 453.919,210.237 468.752,188.904 485,168.5C 495.105,154.29 503.105,138.957 509,122.5C 511.133,113.531 511.967,104.531 511.5,95.5C 516.82,100.814 521.153,106.814 524.5,113.5 Z"/></g>
<g><path style="opacity:1" fill="#26c2be" d="M 440.5,232.5 C 440.227,234.451 440.893,235.951 442.5,237C 441.833,237.333 441.167,237.667 440.5,238C 441.167,239.333 441.833,240.667 442.5,242C 441.256,242.456 440.423,241.956 440,240.5C 439.49,242.829 440.156,244.829 442,246.5C 442.725,244.842 443.892,244.342 445.5,245C 444.151,245.772 443.318,246.939 443,248.5C 441.512,247.804 440.012,248.138 438.5,249.5C 437.067,251.809 437.734,253.309 440.5,254C 437.762,256.684 434.929,257.184 432,255.5C 431.544,256.744 432.044,257.577 433.5,258C 432.833,258.333 432.167,258.667 431.5,259C 432.833,259.667 432.833,260.333 431.5,261C 432.167,261.333 432.833,261.667 433.5,262C 432.062,262.219 430.729,262.719 429.5,263.5C 432.028,264.517 432.028,265.684 429.5,267C 430.833,268 430.833,269 429.5,270C 430.167,270.667 430.833,271.333 431.5,272C 429.968,272.7 428.968,273.866 428.5,275.5C 429.145,278.228 429.979,280.895 431,283.5C 433.984,281.293 434.15,281.793 431.5,285C 431.833,285.333 432.167,285.667 432.5,286C 428.918,286.595 428.584,287.929 431.5,290C 429.291,290.957 429.457,292.124 432,293.5C 434.015,291.522 433.848,289.688 431.5,288C 431.833,287.833 432.167,287.667 432.5,287.5C 434.046,288.684 435.713,289.684 437.5,290.5C 436.96,291.748 436.293,292.915 435.5,294C 437.117,295.092 438.117,296.592 438.5,298.5C 432.442,316.656 427.442,334.989 423.5,353.5C 423.631,352.761 423.464,352.094 423,351.5C 422.667,353.167 422.333,354.833 422,356.5C 418.755,353.921 416.255,350.755 414.5,347C 415.923,345.588 415.756,344.421 414,343.5C 413.549,345.929 412.715,346.096 411.5,344C 412.167,343.333 412.833,342.667 413.5,342C 412.711,339.733 412.044,337.4 411.5,335C 414.288,332.926 413.955,331.426 410.5,330.5C 409.549,331.326 408.549,331.492 407.5,331C 408.833,330.333 408.833,329.667 407.5,329C 408.167,328.667 408.833,328.333 409.5,328C 409.384,326.732 409.051,325.398 408.5,324C 410.95,322.386 410.783,320.886 408,319.5C 407.127,319.735 406.293,320.069 405.5,320.5C 404.83,318.709 404.163,317.042 403.5,315.5C 411.261,285.657 423.594,257.99 440.5,232.5 Z"/></g>
<g><path style="opacity:1" fill="#70ecd4" d="M 748.5,218.5 C 750.167,218.5 751.833,218.5 753.5,218.5C 754.397,241.598 754.731,264.931 754.5,288.5C 752.5,288.5 750.5,288.5 748.5,288.5C 748.5,265.167 748.5,241.833 748.5,218.5 Z"/></g>
<g><path style="opacity:1" fill="#c8f4e7" d="M 728.5,218.5 C 735.167,218.5 741.833,218.5 748.5,218.5C 748.5,241.833 748.5,265.167 748.5,288.5C 747.502,265.673 747.169,242.673 747.5,219.5C 740.978,219.823 734.645,219.49 728.5,218.5 Z"/></g>
<g><path style="opacity:1" fill="#20bbbb" d="M 305.5,274.5 C 317.765,284.096 329.098,294.763 339.5,306.5C 338.287,307.497 338.454,308.497 340,309.5C 340.667,321.5 340.667,333.5 340,345.5C 339.223,350.372 338.557,355.039 338,359.5C 337.303,357.416 336.136,355.749 334.5,354.5C 329.464,344.103 323.631,334.103 317,324.5C 307.825,313.469 298.659,302.469 289.5,291.5C 291.25,292.742 292.917,294.242 294.5,296C 297.547,296.58 297.881,296.247 295.5,295C 296.865,293.318 298.365,293.151 300,294.5C 300.617,293.551 300.451,292.718 299.5,292C 301.746,290.022 304.079,289.022 306.5,289C 305.269,287.817 305.269,286.651 306.5,285.5C 308.452,284.186 310.285,283.52 312,283.5C 311.521,280.51 309.688,278.51 306.5,277.5C 306.023,276.522 305.357,275.689 304.5,275C 304.728,274.601 305.062,274.435 305.5,274.5 Z"/></g>
<g><path style="opacity:1" fill="#29c6bf" d="M 305.5,274.5 C 305.062,274.435 304.728,274.601 304.5,275C 305.357,275.689 306.023,276.522 306.5,277.5C 309.688,278.51 311.521,280.51 312,283.5C 310.285,283.52 308.452,284.186 306.5,285.5C 305.269,286.651 305.269,287.817 306.5,289C 304.079,289.022 301.746,290.022 299.5,292C 300.451,292.718 300.617,293.551 300,294.5C 298.365,293.151 296.865,293.318 295.5,295C 297.881,296.247 297.547,296.58 294.5,296C 292.917,294.242 291.25,292.742 289.5,291.5C 288.957,291.56 288.624,291.893 288.5,292.5C 292.354,301.935 294.354,311.768 294.5,322C 293.137,336.681 291.47,351.181 289.5,365.5C 289.657,364.127 289.49,362.793 289,361.5C 288.829,366.864 288.329,372.198 287.5,377.5C 287.277,372.862 287.11,368.195 287,363.5C 285.984,364.634 285.317,364.301 285,362.5C 283.456,365.264 282.289,365.097 281.5,362C 282.634,360.984 282.301,360.317 280.5,360C 280.833,359.667 281.167,359.333 281.5,359C 278.956,357.908 276.289,357.241 273.5,357C 273.957,356.586 274.291,356.086 274.5,355.5C 273.011,355.467 271.678,354.967 270.5,354C 271.451,353.282 271.617,352.449 271,351.5C 270,352.5 269,353.5 268,354.5C 267.333,353.167 266.333,352.167 265,351.5C 265.721,347.39 265.555,343.39 264.5,339.5C 266.257,322.875 266.757,306.209 266,289.5C 264.841,268.672 256.008,252.172 239.5,240C 251.138,241.974 262.138,245.974 272.5,252C 284.259,258.534 295.259,266.034 305.5,274.5 Z"/></g>
<g><path style="opacity:1" fill="#fdfcfa" d="M 289.5,291.5 C 298.659,302.469 307.825,313.469 317,324.5C 323.631,334.103 329.464,344.103 334.5,354.5C 340.61,376.029 344.11,398.029 345,420.5C 345.949,428.081 347.449,435.414 349.5,442.5C 353.463,457.761 359.63,472.095 368,485.5C 381.619,505.463 397.119,523.963 414.5,541C 393.424,534.297 373.424,525.131 354.5,513.5C 335.102,500.768 319.435,484.435 307.5,464.5C 297.704,447.111 291.704,428.444 289.5,408.5C 288.333,394.172 288.333,379.839 289.5,365.5C 291.47,351.181 293.137,336.681 294.5,322C 294.354,311.768 292.354,301.935 288.5,292.5C 288.624,291.893 288.957,291.56 289.5,291.5 Z"/></g>
<g><path style="opacity:1" fill="#59dfcd" d="M 625.5,321.5 C 624.752,323.933 623.585,326.266 622,328.5C 621,328.167 620,327.833 619,327.5C 617.663,329.004 615.996,330.004 614,330.5C 612.992,330.018 611.825,329.852 610.5,330C 611.696,329.346 611.696,328.846 610.5,328.5C 608.934,331.407 607.1,334.074 605,336.5C 604.333,335.167 603.667,335.167 603,336.5C 602.667,335.5 602.333,334.5 602,333.5C 601.841,336.882 602.341,340.215 603.5,343.5C 603.457,344.416 603.124,345.083 602.5,345.5C 597.112,320.404 587.612,297.071 574,275.5C 570.686,271.352 567.186,267.352 563.5,263.5C 569.426,252.648 575.093,241.648 580.5,230.5C 603.197,256.896 618.197,287.229 625.5,321.5 Z"/></g>
<g><path style="opacity:1" fill="#28c5bf" d="M 513.5,320.5 C 522.527,329.194 531.527,337.861 540.5,346.5C 538.058,348.338 535.558,350.338 533,352.5C 531.562,353.9 530.729,355.567 530.5,357.5C 528.176,357.662 526.509,358.828 525.5,361C 526.96,361.811 527.293,362.645 526.5,363.5C 524.183,361.684 522.016,359.684 520,357.5C 519.601,357.728 519.435,358.062 519.5,358.5C 517.15,357.139 514.816,355.806 512.5,354.5C 513.141,344.832 513.808,335.166 514.5,325.5C 512.576,324.035 512.243,322.368 513.5,320.5 Z"/></g>
<g><path style="opacity:1" fill="#1cb1b6" d="M 513.5,320.5 C 512.243,322.368 512.576,324.035 514.5,325.5C 513.808,335.166 513.141,344.832 512.5,354.5C 512.5,354.833 512.5,355.167 512.5,355.5C 511.833,355.833 511.167,356.167 510.5,356.5C 509.047,356.071 507.381,355.904 505.5,356C 503.431,355.676 503.098,354.842 504.5,353.5C 503.478,352.646 502.645,351.646 502,350.5C 501.586,350.957 501.086,351.291 500.5,351.5C 499.238,348.885 498.072,346.218 497,343.5C 496.667,343.833 496.333,344.167 496,344.5C 495.667,343.5 495.333,342.5 495,341.5C 494.667,341.833 494.333,342.167 494,342.5C 493.775,340.209 493.608,338.209 493.5,336.5C 499.092,331.016 504.758,325.516 510.5,320C 511.749,319.26 512.749,319.427 513.5,320.5 Z"/></g>
<g><path style="opacity:1" fill="#1cb3b7" d="M 403.5,315.5 C 404.163,317.042 404.83,318.709 405.5,320.5C 406.293,320.069 407.127,319.735 408,319.5C 410.783,320.886 410.95,322.386 408.5,324C 409.051,325.398 409.384,326.732 409.5,328C 408.833,328.333 408.167,328.667 407.5,329C 408.833,329.667 408.833,330.333 407.5,331C 408.549,331.492 409.549,331.326 410.5,330.5C 413.955,331.426 414.288,332.926 411.5,335C 412.044,337.4 412.711,339.733 413.5,342C 412.833,342.667 412.167,343.333 411.5,344C 412.715,346.096 413.549,345.929 414,343.5C 415.756,344.421 415.923,345.588 414.5,347C 416.255,350.755 418.755,353.921 422,356.5C 422.333,354.833 422.667,353.167 423,351.5C 423.464,352.094 423.631,352.761 423.5,353.5C 420.744,372.88 421.078,392.213 424.5,411.5C 420.364,411.285 419.364,409.785 421.5,407C 420.507,405.033 418.84,403.866 416.5,403.5C 413.939,406.147 412.439,405.48 412,401.5C 410.927,402.28 409.76,402.113 408.5,401C 409.833,400.333 411.167,399.667 412.5,399C 410.893,397.951 410.227,396.451 410.5,394.5C 409.325,394.281 408.325,394.614 407.5,395.5C 408.167,395.833 408.833,396.167 409.5,396.5C 408.147,397.685 406.98,399.019 406,400.5C 405.647,399.328 405.813,398.162 406.5,397C 405.327,395.495 404.161,393.995 403,392.5C 402.667,392.833 402.333,393.167 402,393.5C 401.56,391.924 400.727,390.59 399.5,389.5C 400.855,388.325 400.688,387.325 399,386.5C 398.667,386.833 398.333,387.167 398,387.5C 397.83,377.991 397.33,368.658 396.5,359.5C 397.161,344.533 399.495,329.866 403.5,315.5 Z"/></g>
<g><path style="opacity:1" fill="#1fb7b9" d="M 540.5,346.5 C 551.134,355.467 561.134,365.134 570.5,375.5C 569.674,379.982 569.174,384.649 569,389.5C 568.879,387.273 568.046,385.44 566.5,384C 568.604,382.164 568.938,379.998 567.5,377.5C 567.795,378.826 567.295,380.159 566,381.5C 561.542,380.839 557.208,379.839 553,378.5C 552.664,380.074 551.831,381.408 550.5,382.5C 551.609,383.965 551.109,384.965 549,385.5C 547.981,384.313 546.814,383.313 545.5,382.5C 544.893,382.624 544.56,382.957 544.5,383.5C 535.833,375.5 527.5,367.167 519.5,358.5C 519.435,358.062 519.601,357.728 520,357.5C 522.016,359.684 524.183,361.684 526.5,363.5C 527.293,362.645 526.96,361.811 525.5,361C 526.509,358.828 528.176,357.662 530.5,357.5C 530.729,355.567 531.562,353.9 533,352.5C 535.558,350.338 538.058,348.338 540.5,346.5 Z"/></g>
<g><path style="opacity:1" fill="#d4f4e9" d="M 512.5,354.5 C 514.816,355.806 517.15,357.139 519.5,358.5C 527.5,367.167 535.833,375.5 544.5,383.5C 548.088,385.335 549.754,388.001 549.5,391.5C 537.198,402.799 524.865,414.132 512.5,425.5C 512.5,402.167 512.5,378.833 512.5,355.5C 512.5,355.167 512.5,354.833 512.5,354.5 Z"/></g>
<g><path style="opacity:1" fill="#3ad2c5" d="M 708.5,494.5 C 706.629,494.859 705.129,495.859 704,497.5C 701.054,493.237 698.72,493.57 697,498.5C 695.333,497.167 693.667,497.167 692,498.5C 690.933,497.809 689.766,497.309 688.5,497C 689.854,495.706 691.188,495.54 692.5,496.5C 692.833,496 693.167,495.5 693.5,495C 692.195,494.807 690.861,493.807 689.5,492C 693.361,490.657 693.361,489.157 689.5,487.5C 688.5,487.833 687.833,488.5 687.5,489.5C 688.641,490.425 688.641,491.259 687.5,492C 688.167,492.667 688.833,493.333 689.5,494C 686.503,494.488 683.503,494.655 680.5,494.5C 680.99,499.507 680.157,500.174 678,496.5C 677.044,497.579 676.211,498.745 675.5,500C 676.956,500.423 677.456,501.256 677,502.5C 674.073,500.981 673.073,498.647 674,495.5C 674.333,495.833 674.667,496.167 675,496.5C 675.333,495.5 675.667,494.5 676,493.5C 676.333,493.833 676.667,494.167 677,494.5C 677.333,493.167 677.667,491.833 678,490.5C 680.332,488.797 682.165,486.797 683.5,484.5C 703.283,463.735 715.783,439.069 721,410.5C 722.521,397.48 724.187,384.48 726,371.5C 727.178,364.966 729.344,358.8 732.5,353C 718.938,358.856 706.604,366.856 695.5,377C 675.76,395.394 658.26,415.561 643,437.5C 654.027,382.8 684.86,343.633 735.5,320C 748.21,315.097 761.044,310.597 774,306.5C 765.403,323.605 758.737,341.605 754,360.5C 751.575,377.449 749.575,394.449 748,411.5C 743.645,438.251 733.645,462.584 718,484.5C 715.048,488.099 711.882,491.433 708.5,494.5 Z"/></g>
<g><path style="opacity:1" fill="#13a0ab" d="M 339.5,306.5 C 368.483,340.708 380.316,380.374 375,425.5C 376.31,433.219 377.81,440.885 379.5,448.5C 378.876,448.917 378.543,449.584 378.5,450.5C 379.882,454.121 380.715,457.788 381,461.5C 379.274,460.424 377.441,460.257 375.5,461C 376.381,462.793 375.714,463.46 373.5,463C 374.696,462.346 374.696,461.846 373.5,461.5C 372.522,461.977 371.689,462.643 371,463.5C 370,462.167 369,460.833 368,459.5C 367.085,460.328 366.419,461.328 366,462.5C 365.31,459.804 363.81,457.637 361.5,456C 359.102,455.975 356.769,455.141 354.5,453.5C 353.833,450.5 353.167,447.5 352.5,444.5C 353.002,443.284 353.335,442.117 353.5,441C 353,440.5 352.5,440 352,439.5C 351.581,443.852 350.914,444.185 350,440.5C 349.536,441.094 349.369,441.761 349.5,442.5C 347.449,435.414 345.949,428.081 345,420.5C 344.11,398.029 340.61,376.029 334.5,354.5C 336.136,355.749 337.303,357.416 338,359.5C 338.557,355.039 339.223,350.372 340,345.5C 340.667,333.5 340.667,321.5 340,309.5C 338.454,308.497 338.287,307.497 339.5,306.5 Z"/></g>
<g><path style="opacity:1" fill="#1fb9ba" d="M 264.5,339.5 C 265.555,343.39 265.721,347.39 265,351.5C 266.333,352.167 267.333,353.167 268,354.5C 269,353.5 270,352.5 271,351.5C 271.617,352.449 271.451,353.282 270.5,354C 271.678,354.967 273.011,355.467 274.5,355.5C 274.291,356.086 273.957,356.586 273.5,357C 276.289,357.241 278.956,357.908 281.5,359C 281.167,359.333 280.833,359.667 280.5,360C 282.301,360.317 282.634,360.984 281.5,362C 282.289,365.097 283.456,365.264 285,362.5C 285.317,364.301 285.984,364.634 287,363.5C 287.11,368.195 287.277,372.862 287.5,377.5C 288.329,372.198 288.829,366.864 289,361.5C 289.49,362.793 289.657,364.127 289.5,365.5C 288.333,379.839 288.333,394.172 289.5,408.5C 288.835,410.369 288.169,412.369 287.5,414.5C 286.158,413.098 285.324,413.431 285,415.5C 283.335,413.194 281.669,410.861 280,408.5C 279.019,411.689 277.686,412.022 276,409.5C 275.667,410.167 275.333,410.833 275,411.5C 274.751,410.376 274.251,409.376 273.5,408.5C 270.885,410.279 268.218,410.945 265.5,410.5C 264.231,408.305 264.231,406.139 265.5,404C 264.874,403.25 264.374,402.416 264,401.5C 263.667,401.833 263.333,402.167 263,402.5C 262.667,401.5 262.333,400.5 262,399.5C 261.505,401.473 261.338,403.473 261.5,405.5C 260.341,394.341 260.174,383.008 261,371.5C 262.204,360.827 263.371,350.16 264.5,339.5 Z"/></g>
<g><path style="opacity:1" fill="#43d5c6" d="M 625.5,321.5 C 632.926,353.365 633.426,385.365 627,417.5C 625.454,423.711 623.62,429.711 621.5,435.5C 619.89,438.533 617.89,441.366 615.5,444C 616.517,445.049 616.684,446.216 616,447.5C 614.088,451.66 611.921,455.66 609.5,459.5C 608.406,458.132 608.74,456.965 610.5,456C 608.593,455.868 607.093,456.702 606,458.5C 604.238,458.056 604.405,457.556 606.5,457C 606,456.5 605.5,456 605,455.5C 604.107,456.711 603.274,456.711 602.5,455.5C 603.09,454.201 604.09,453.368 605.5,453C 605,452.5 604.5,452 604,451.5C 602.29,453.38 600.457,455.046 598.5,456.5C 597.833,456.333 597.167,456.167 596.5,456C 597.672,455.581 598.672,454.915 599.5,454C 596.833,453 594.167,452 591.5,451C 595.157,444.524 597.824,437.691 599.5,430.5C 606.242,402.384 607.242,374.05 602.5,345.5C 603.124,345.083 603.457,344.416 603.5,343.5C 602.341,340.215 601.841,336.882 602,333.5C 602.333,334.5 602.667,335.5 603,336.5C 603.667,335.167 604.333,335.167 605,336.5C 607.1,334.074 608.934,331.407 610.5,328.5C 611.696,328.846 611.696,329.346 610.5,330C 611.825,329.852 612.992,330.018 614,330.5C 615.996,330.004 617.663,329.004 619,327.5C 620,327.833 621,328.167 622,328.5C 623.585,326.266 624.752,323.933 625.5,321.5 Z"/></g>
<g><path style="opacity:1" fill="#8aeeda" d="M 512.5,355.5 C 512.5,378.833 512.5,402.167 512.5,425.5C 504.037,418.207 495.704,410.707 487.5,403C 483.119,398.955 479.119,394.622 475.5,390C 487.207,378.825 498.874,367.658 510.5,356.5C 511.167,356.167 511.833,355.833 512.5,355.5 Z"/></g>
<g><path style="opacity:1" fill="#119da8" d="M 493.5,336.5 C 493.608,338.209 493.775,340.209 494,342.5C 494.333,342.167 494.667,341.833 495,341.5C 495.333,342.5 495.667,343.5 496,344.5C 496.333,344.167 496.667,343.833 497,343.5C 498.072,346.218 499.238,348.885 500.5,351.5C 501.086,351.291 501.586,350.957 502,350.5C 502.645,351.646 503.478,352.646 504.5,353.5C 503.098,354.842 503.431,355.676 505.5,356C 507.381,355.904 509.047,356.071 510.5,356.5C 498.874,367.658 487.207,378.825 475.5,390C 479.119,394.622 483.119,398.955 487.5,403C 495.704,410.707 504.037,418.207 512.5,425.5C 512.5,426.5 512.5,427.5 512.5,428.5C 512.5,438.167 512.5,447.833 512.5,457.5C 511.691,459.292 511.191,461.292 511,463.5C 509.992,463.018 508.825,462.852 507.5,463C 496.383,454.55 485.883,445.383 476,435.5C 475.389,420.164 474.722,404.831 474,389.5C 473.837,391.676 473.004,393.509 471.5,395C 472,395.5 472.5,396 473,396.5C 473.499,400.152 473.665,403.818 473.5,407.5C 471.227,408.735 469.394,408.402 468,406.5C 467.086,410.185 466.419,409.852 466,405.5C 463.891,406.035 463.391,407.035 464.5,408.5C 463.131,410.124 461.464,410.624 459.5,410C 462.173,408.729 462.173,408.063 459.5,408C 458.874,408.75 458.374,409.584 458,410.5C 457.086,409.346 456.253,409.513 455.5,411C 456.308,411.308 456.975,411.808 457.5,412.5C 456.391,414.385 455.557,416.385 455,418.5C 453.778,405.184 453.445,391.85 454,378.5C 455,377.5 456,376.5 457,375.5C 457.692,374.563 457.525,373.897 456.5,373.5C 468.5,360.833 480.833,348.5 493.5,336.5 Z"/></g>
<g><path style="opacity:1" fill="#eac24a" d="M 877.5,463.5 C 876.989,467.242 876.156,470.909 875,474.5C 869.667,480.5 864.333,486.5 859,492.5C 852.577,499.428 845.744,505.762 838.5,511.5C 838.5,509.833 838.5,508.167 838.5,506.5C 835.833,506.5 833.167,506.5 830.5,506.5C 842.184,493.651 854.018,480.984 866,468.5C 866.168,450.662 866.668,432.995 867.5,415.5C 868.486,411.03 868.819,406.363 868.5,401.5C 871.167,401.5 873.833,401.5 876.5,401.5C 876.169,422.34 876.503,443.007 877.5,463.5 Z"/></g>
<g><path style="opacity:1" fill="#13a0ab" d="M 570.5,375.5 C 570.83,395.007 570.497,414.341 569.5,433.5C 569.665,429.818 569.499,426.152 569,422.5C 568.79,428.231 568.124,433.897 567,439.5C 566.703,436.705 565.203,435.039 562.5,434.5C 560.031,435.374 557.865,436.708 556,438.5C 555.333,437.833 554.667,437.167 554,436.5C 553,437.833 552,437.833 551,436.5C 550.185,422.788 550.352,409.121 551.5,395.5C 551.043,394.702 550.376,394.369 549.5,394.5C 549.5,393.5 549.5,392.5 549.5,391.5C 549.754,388.001 548.088,385.335 544.5,383.5C 544.56,382.957 544.893,382.624 545.5,382.5C 546.814,383.313 547.981,384.313 549,385.5C 551.109,384.965 551.609,383.965 550.5,382.5C 551.831,381.408 552.664,380.074 553,378.5C 557.208,379.839 561.542,380.839 566,381.5C 567.295,380.159 567.795,378.826 567.5,377.5C 568.938,379.998 568.604,382.164 566.5,384C 568.046,385.44 568.879,387.273 569,389.5C 569.174,384.649 569.674,379.982 570.5,375.5 Z"/></g>
<g><path style="opacity:1" fill="#49d8c9" d="M 313.5,551.5 C 312.761,551.369 312.094,551.536 311.5,552C 316.42,554.196 321.42,556.196 326.5,558C 324.581,559.934 323.081,559.767 322,557.5C 319.48,558.207 316.98,559.04 314.5,560C 312.086,562.625 310.919,565.458 311,568.5C 307.317,566.52 307.15,565.02 310.5,564C 309.542,562.853 309.875,561.853 311.5,561C 310.975,560.308 310.308,559.808 309.5,559.5C 307.011,561.384 305.345,563.384 304.5,565.5C 301.833,564.167 299.167,562.833 296.5,561.5C 295.893,561.624 295.56,561.957 295.5,562.5C 267.976,550.317 243.809,533.317 223,511.5C 187.65,469.76 178.65,422.76 196,370.5C 197.887,372.026 198.887,374.026 199,376.5C 201.788,407.319 209.121,436.985 221,465.5C 240.816,506.154 271.649,534.82 313.5,551.5 Z"/></g>
<g><path style="opacity:1" fill="#1bacb3" d="M 396.5,359.5 C 397.33,368.658 397.83,377.991 398,387.5C 398.333,387.167 398.667,386.833 399,386.5C 400.688,387.325 400.855,388.325 399.5,389.5C 400.727,390.59 401.56,391.924 402,393.5C 402.333,393.167 402.667,392.833 403,392.5C 404.161,393.995 405.327,395.495 406.5,397C 405.813,398.162 405.647,399.328 406,400.5C 406.98,399.019 408.147,397.685 409.5,396.5C 408.833,396.167 408.167,395.833 407.5,395.5C 408.325,394.614 409.325,394.281 410.5,394.5C 410.227,396.451 410.893,397.951 412.5,399C 411.167,399.667 409.833,400.333 408.5,401C 409.76,402.113 410.927,402.28 412,401.5C 412.439,405.48 413.939,406.147 416.5,403.5C 418.84,403.866 420.507,405.033 421.5,407C 419.364,409.785 420.364,411.285 424.5,411.5C 426.63,420.556 428.963,429.556 431.5,438.5C 431.074,442.443 432.074,446.276 434.5,450C 433.552,450.483 432.552,450.649 431.5,450.5C 431.617,448.516 430.95,446.85 429.5,445.5C 430.326,444.549 430.492,443.549 430,442.5C 428.077,443.316 426.077,443.983 424,444.5C 423.454,443.711 422.787,442.711 422,441.5C 421.667,442.5 421.333,443.5 421,444.5C 420.487,442.479 419.32,440.979 417.5,440C 418.451,439.282 418.617,438.449 418,437.5C 417.333,438.833 416.667,438.833 416,437.5C 415.361,440.228 414.194,440.728 412.5,439C 414.767,437.919 414.934,436.419 413,434.5C 412.692,435.308 412.192,435.975 411.5,436.5C 410.646,435.478 409.646,434.645 408.5,434C 410.645,433.257 410.811,432.424 409,431.5C 407.56,432.148 406.06,432.481 404.5,432.5C 396.83,408.83 394.163,384.497 396.5,359.5 Z"/></g>
<g><path style="opacity:1" fill="#36cfc3" d="M 549.5,391.5 C 549.5,392.5 549.5,393.5 549.5,394.5C 549.654,409.189 549.154,423.855 548,438.5C 544.748,441.863 541.248,444.863 537.5,447.5C 537.062,447.565 536.728,447.399 536.5,447C 537.833,445.667 539.167,444.333 540.5,443C 537.993,441.251 534.66,439.751 530.5,438.5C 529.808,439.025 529.308,439.692 529,440.5C 528.16,437.536 527.16,437.203 526,439.5C 525.586,439.043 525.086,438.709 524.5,438.5C 520.967,439.375 517.634,440.708 514.5,442.5C 513.833,437.683 513.166,433.017 512.5,428.5C 512.5,427.5 512.5,426.5 512.5,425.5C 524.865,414.132 537.198,402.799 549.5,391.5 Z"/></g>
<g><path style="opacity:1" fill="#36d2c3" d="M 816.5,297.5 C 820.5,297.5 824.5,297.5 828.5,297.5C 827.391,339.16 826.891,380.826 827,422.5C 827.692,423.025 828.192,423.692 828.5,424.5C 827.806,428.19 826.972,431.857 826,435.5C 817.808,444.724 809.975,454.224 802.5,464C 791.172,464.5 779.838,464.667 768.5,464.5C 768.5,461.833 768.5,459.167 768.5,456.5C 776.84,456.666 785.173,456.5 793.5,456C 803.059,448.009 810.559,438.509 816,427.5C 816.5,384.168 816.667,340.835 816.5,297.5 Z"/></g>
<g><path style="opacity:1" fill="#19acb3" d="M 289.5,408.5 C 291.704,428.444 297.704,447.111 307.5,464.5C 306.957,464.56 306.624,464.893 306.5,465.5C 307.167,466.833 307.833,468.167 308.5,469.5C 308.167,470.5 307.5,471.167 306.5,471.5C 305.066,469.78 304.233,467.78 304,465.5C 303.333,466.167 302.667,466.833 302,467.5C 298.774,463.284 295.107,460.284 291,458.5C 290.779,461.943 289.779,462.276 288,459.5C 287.911,462.849 286.744,463.349 284.5,461C 285.337,459.989 285.67,458.822 285.5,457.5C 283.876,457.36 282.71,458.027 282,459.5C 281.55,456.936 282.716,455.436 285.5,455C 283.567,454.749 281.734,454.249 280,453.5C 279.667,454.5 279.333,455.5 279,456.5C 277.251,455.701 275.918,456.368 275,458.5C 274.316,457.216 274.483,456.049 275.5,455C 273.277,454.348 272.11,452.848 272,450.5C 271.536,451.094 271.369,451.761 271.5,452.5C 265.373,437.541 262.04,421.874 261.5,405.5C 261.338,403.473 261.505,401.473 262,399.5C 262.333,400.5 262.667,401.5 263,402.5C 263.333,402.167 263.667,401.833 264,401.5C 264.374,402.416 264.874,403.25 265.5,404C 264.231,406.139 264.231,408.305 265.5,410.5C 268.218,410.945 270.885,410.279 273.5,408.5C 274.251,409.376 274.751,410.376 275,411.5C 275.333,410.833 275.667,410.167 276,409.5C 277.686,412.022 279.019,411.689 280,408.5C 281.669,410.861 283.335,413.194 285,415.5C 285.324,413.431 286.158,413.098 287.5,414.5C 288.169,412.369 288.835,410.369 289.5,408.5 Z"/></g>
<g><path style="opacity:1" fill="#e4b216" d="M 877.5,463.5 C 876.503,443.007 876.169,422.34 876.5,401.5C 873.833,401.5 871.167,401.5 868.5,401.5C 868.819,406.363 868.486,411.03 867.5,415.5C 867.5,410.5 867.5,405.5 867.5,400.5C 870.833,400.5 874.167,400.5 877.5,400.5C 877.5,421.5 877.5,442.5 877.5,463.5 Z"/></g>
<g><path style="opacity:1" fill="#098f9c" d="M 456.5,373.5 C 457.525,373.897 457.692,374.563 457,375.5C 456,376.5 455,377.5 454,378.5C 453.445,391.85 453.778,405.184 455,418.5C 455.557,416.385 456.391,414.385 457.5,412.5C 456.975,411.808 456.308,411.308 455.5,411C 456.253,409.513 457.086,409.346 458,410.5C 458.374,409.584 458.874,408.75 459.5,408C 462.173,408.063 462.173,408.729 459.5,410C 461.464,410.624 463.131,410.124 464.5,408.5C 463.391,407.035 463.891,406.035 466,405.5C 466.419,409.852 467.086,410.185 468,406.5C 469.394,408.402 471.227,408.735 473.5,407.5C 473.665,403.818 473.499,400.152 473,396.5C 472.5,396 472,395.5 471.5,395C 473.004,393.509 473.837,391.676 474,389.5C 474.722,404.831 475.389,420.164 476,435.5C 485.883,445.383 496.383,454.55 507.5,463C 508.825,462.852 509.992,463.018 511,463.5C 511.191,461.292 511.691,459.292 512.5,457.5C 512.335,460.518 512.502,463.518 513,466.5C 513.308,467.308 513.808,467.975 514.5,468.5C 522.512,461.819 530.179,454.819 537.5,447.5C 541.248,444.863 544.748,441.863 548,438.5C 549.154,423.855 549.654,409.189 549.5,394.5C 550.376,394.369 551.043,394.702 551.5,395.5C 550.352,409.121 550.185,422.788 551,436.5C 552,437.833 553,437.833 554,436.5C 554.667,437.167 555.333,437.833 556,438.5C 557.865,436.708 560.031,435.374 562.5,434.5C 565.203,435.039 566.703,436.705 567,439.5C 568.124,433.897 568.79,428.231 569,422.5C 569.499,426.152 569.665,429.818 569.5,433.5C 569.665,436.518 569.498,439.518 569,442.5C 550.591,460.6 531.425,477.433 511.5,493C 492.388,477.058 473.721,460.558 455.5,443.5C 452.963,421.564 452.129,399.564 453,377.5C 454.376,376.295 455.542,374.962 456.5,373.5 Z"/></g>
<g><path style="opacity:1" fill="#20b9bb" d="M 512.5,428.5 C 513.166,433.017 513.833,437.683 514.5,442.5C 517.634,440.708 520.967,439.375 524.5,438.5C 525.086,438.709 525.586,439.043 526,439.5C 527.16,437.203 528.16,437.536 529,440.5C 529.308,439.692 529.808,439.025 530.5,438.5C 534.66,439.751 537.993,441.251 540.5,443C 539.167,444.333 537.833,445.667 536.5,447C 536.728,447.399 537.062,447.565 537.5,447.5C 530.179,454.819 522.512,461.819 514.5,468.5C 513.808,467.975 513.308,467.308 513,466.5C 512.502,463.518 512.335,460.518 512.5,457.5C 512.5,447.833 512.5,438.167 512.5,428.5 Z"/></g>
<g><path style="opacity:1" fill="#1098a4" d="M 379.5,448.5 C 385.751,469.339 395.918,488.005 410,504.5C 427.365,523.254 445.865,540.754 465.5,557C 485.555,574.709 501.388,595.543 513,619.5C 513.708,618.619 514.542,617.953 515.5,617.5C 516.239,617.369 516.906,617.536 517.5,618C 512.713,620.555 512.38,623.555 516.5,627C 515.366,628.016 515.699,628.683 517.5,629C 516.5,630.667 515.5,632.333 514.5,634C 515,634.5 515.5,635 516,635.5C 517,635.167 518,634.833 519,634.5C 519.617,635.449 519.451,636.282 518.5,637C 520.569,637.324 520.902,638.158 519.5,639.5C 520.305,641.472 521.639,642.972 523.5,644C 522.833,644.333 522.167,644.667 521.5,645C 523.522,648.394 525.189,651.894 526.5,655.5C 525.655,658.826 525.155,662.16 525,665.5C 530.004,659.664 535.171,653.997 540.5,648.5C 541.239,648.369 541.906,648.536 542.5,649C 538.275,652.722 534.608,656.888 531.5,661.5C 531.846,662.696 532.346,662.696 533,661.5C 533.684,662.784 533.517,663.951 532.5,665C 534.301,665.317 534.634,665.984 533.5,667C 534,667.5 534.5,668 535,668.5C 535.155,666.144 535.155,663.811 535,661.5C 537,663.5 539,665.5 541,667.5C 542.617,666.464 542.784,665.297 541.5,664C 542.998,663.415 543.998,663.915 544.5,665.5C 539.447,671.057 534.947,677.057 531,683.5C 521.855,701.124 512.188,718.458 502,735.5C 493.5,746.667 483.667,756.5 472.5,765C 471.833,765.667 471.167,765.667 470.5,765C 488.983,744.911 498.483,721.078 499,693.5C 501.854,632.994 475.687,590.827 420.5,567C 390.603,555.652 361.603,542.486 333.5,527.5C 334.313,526.347 335.313,526.347 336.5,527.5C 337.861,525.972 339.028,524.305 340,522.5C 340.75,523.126 341.584,523.626 342.5,524C 341.549,524.718 341.383,525.551 342,526.5C 342.833,525 344,523.833 345.5,523C 342.258,522.717 341.924,521.883 344.5,520.5C 343.975,519.808 343.308,519.308 342.5,519C 343.447,516.522 343.447,514.188 342.5,512C 343.333,511.167 344.167,510.333 345,509.5C 347.845,511.72 350.511,514.054 353,516.5C 354.156,515.498 354.656,514.498 354.5,513.5C 373.424,525.131 393.424,534.297 414.5,541C 397.119,523.963 381.619,505.463 368,485.5C 359.63,472.095 353.463,457.761 349.5,442.5C 349.369,441.761 349.536,441.094 350,440.5C 350.914,444.185 351.581,443.852 352,439.5C 352.5,440 353,440.5 353.5,441C 353.335,442.117 353.002,443.284 352.5,444.5C 353.167,447.5 353.833,450.5 354.5,453.5C 356.769,455.141 359.102,455.975 361.5,456C 363.81,457.637 365.31,459.804 366,462.5C 366.419,461.328 367.085,460.328 368,459.5C 369,460.833 370,462.167 371,463.5C 371.689,462.643 372.522,461.977 373.5,461.5C 374.696,461.846 374.696,462.346 373.5,463C 375.714,463.46 376.381,462.793 375.5,461C 377.441,460.257 379.274,460.424 381,461.5C 380.715,457.788 379.882,454.121 378.5,450.5C 378.543,449.584 378.876,448.917 379.5,448.5 Z"/></g>
<g><path style="opacity:1" fill="#2bc7c0" d="M 599.5,430.5 C 597.824,437.691 595.157,444.524 591.5,451C 594.167,452 596.833,453 599.5,454C 598.672,454.915 597.672,455.581 596.5,456C 597.167,456.167 597.833,456.333 598.5,456.5C 600.457,455.046 602.29,453.38 604,451.5C 604.5,452 605,452.5 605.5,453C 604.09,453.368 603.09,454.201 602.5,455.5C 603.274,456.711 604.107,456.711 605,455.5C 605.5,456 606,456.5 606.5,457C 604.405,457.556 604.238,458.056 606,458.5C 607.093,456.702 608.593,455.868 610.5,456C 608.74,456.965 608.406,458.132 609.5,459.5C 611.921,455.66 614.088,451.66 616,447.5C 616.684,446.216 616.517,445.049 615.5,444C 617.89,441.366 619.89,438.533 621.5,435.5C 613.403,459.717 600.736,481.051 583.5,499.5C 582.391,498.71 581.058,498.21 579.5,498C 580.784,496.703 580.617,495.536 579,494.5C 578.667,495.167 578.333,495.833 578,496.5C 576.57,496.306 575.07,496.306 573.5,496.5C 573.306,494.958 572.139,493.625 570,492.5C 569.667,492.833 569.333,493.167 569,493.5C 568.086,491.336 566.919,489.336 565.5,487.5C 566.48,486.019 567.647,484.685 569,483.5C 569.692,482.563 569.525,481.897 568.5,481.5C 581.743,466.26 592.076,449.26 599.5,430.5 Z"/></g>
<g><path style="opacity:1" fill="#16a3ad" d="M 431.5,438.5 C 437.948,456.101 447.114,472.101 459,486.5C 469.728,497.396 480.562,508.063 491.5,518.5C 489.983,518.489 488.816,517.823 488,516.5C 487.819,518.674 488.652,520.507 490.5,522C 490.167,522.333 489.833,522.667 489.5,523C 492.89,524.006 493.89,526.006 492.5,529C 493.744,529.456 494.577,528.956 495,527.5C 495.309,528.766 495.809,529.933 496.5,531C 495.044,531.423 494.544,532.256 495,533.5C 496.558,532.655 497.558,533.321 498,535.5C 498.359,532.456 499.026,532.122 500,534.5C 500.914,533.346 501.747,533.513 502.5,535C 501.833,535.333 501.167,535.667 500.5,536C 500.132,537.473 500.632,538.973 502,540.5C 504.21,539.251 506.376,539.418 508.5,541C 506.099,541.805 506.266,542.638 509,543.5C 509.494,545.134 509.66,546.801 509.5,548.5C 511.199,548.34 512.866,548.506 514.5,549C 512.993,549.837 512.493,551.004 513,552.5C 516.265,553.048 518.432,554.881 519.5,558C 518.672,558.915 517.672,559.581 516.5,560C 518.171,561.843 519.171,564.009 519.5,566.5C 517.745,569.68 515.745,572.68 513.5,575.5C 502.392,560.224 489.392,546.724 474.5,535C 453.933,515.964 436.1,494.798 421,471.5C 413.845,459.191 408.345,446.191 404.5,432.5C 406.06,432.481 407.56,432.148 409,431.5C 410.811,432.424 410.645,433.257 408.5,434C 409.646,434.645 410.646,435.478 411.5,436.5C 412.192,435.975 412.692,435.308 413,434.5C 414.934,436.419 414.767,437.919 412.5,439C 414.194,440.728 415.361,440.228 416,437.5C 416.667,438.833 417.333,438.833 418,437.5C 418.617,438.449 418.451,439.282 417.5,440C 419.32,440.979 420.487,442.479 421,444.5C 421.333,443.5 421.667,442.5 422,441.5C 422.787,442.711 423.454,443.711 424,444.5C 426.077,443.983 428.077,443.316 430,442.5C 430.492,443.549 430.326,444.549 429.5,445.5C 430.95,446.85 431.617,448.516 431.5,450.5C 432.552,450.649 433.552,450.483 434.5,450C 432.074,446.276 431.074,442.443 431.5,438.5 Z"/></g>
<g><path style="opacity:1" fill="#15a0aa" d="M 307.5,464.5 C 319.435,484.435 335.102,500.768 354.5,513.5C 354.656,514.498 354.156,515.498 353,516.5C 350.511,514.054 347.845,511.72 345,509.5C 344.167,510.333 343.333,511.167 342.5,512C 343.447,514.188 343.447,516.522 342.5,519C 343.308,519.308 343.975,519.808 344.5,520.5C 341.924,521.883 342.258,522.717 345.5,523C 344,523.833 342.833,525 342,526.5C 341.383,525.551 341.549,524.718 342.5,524C 341.584,523.626 340.75,523.126 340,522.5C 339.028,524.305 337.861,525.972 336.5,527.5C 335.313,526.347 334.313,526.347 333.5,527.5C 304.088,509.752 283.421,484.752 271.5,452.5C 271.369,451.761 271.536,451.094 272,450.5C 272.11,452.848 273.277,454.348 275.5,455C 274.483,456.049 274.316,457.216 275,458.5C 275.918,456.368 277.251,455.701 279,456.5C 279.333,455.5 279.667,454.5 280,453.5C 281.734,454.249 283.567,454.749 285.5,455C 282.716,455.436 281.55,456.936 282,459.5C 282.71,458.027 283.876,457.36 285.5,457.5C 285.67,458.822 285.337,459.989 284.5,461C 286.744,463.349 287.911,462.849 288,459.5C 289.779,462.276 290.779,461.943 291,458.5C 295.107,460.284 298.774,463.284 302,467.5C 302.667,466.833 303.333,466.167 304,465.5C 304.233,467.78 305.066,469.78 306.5,471.5C 307.5,471.167 308.167,470.5 308.5,469.5C 307.833,468.167 307.167,466.833 306.5,465.5C 306.624,464.893 306.957,464.56 307.5,464.5 Z"/></g>
<g><path style="opacity:1" fill="#2ecbc1" d="M 683.5,484.5 C 682.165,486.797 680.332,488.797 678,490.5C 677.667,491.833 677.333,493.167 677,494.5C 676.667,494.167 676.333,493.833 676,493.5C 675.667,494.5 675.333,495.5 675,496.5C 674.667,496.167 674.333,495.833 674,495.5C 673.073,498.647 674.073,500.981 677,502.5C 677.456,501.256 676.956,500.423 675.5,500C 676.211,498.745 677.044,497.579 678,496.5C 680.157,500.174 680.99,499.507 680.5,494.5C 683.503,494.655 686.503,494.488 689.5,494C 688.833,493.333 688.167,492.667 687.5,492C 688.641,491.259 688.641,490.425 687.5,489.5C 687.833,488.5 688.5,487.833 689.5,487.5C 693.361,489.157 693.361,490.657 689.5,492C 690.861,493.807 692.195,494.807 693.5,495C 693.167,495.5 692.833,496 692.5,496.5C 691.188,495.54 689.854,495.706 688.5,497C 689.766,497.309 690.933,497.809 692,498.5C 693.667,497.167 695.333,497.167 697,498.5C 698.72,493.57 701.054,493.237 704,497.5C 705.129,495.859 706.629,494.859 708.5,494.5C 700.235,503.597 690.902,511.43 680.5,518C 668.285,525.609 655.618,532.442 642.5,538.5C 641.469,537.751 640.302,537.085 639,536.5C 638.667,536.833 638.333,537.167 638,537.5C 637.173,536.338 636.34,535.171 635.5,534C 638.308,530.169 637.974,529.336 634.5,531.5C 631.972,530.502 631.972,529.669 634.5,529C 633.747,527.513 632.914,527.346 632,528.5C 630.488,527.743 629.154,526.743 628,525.5C 627.692,526.308 627.192,526.975 626.5,527.5C 625.575,526.359 624.741,526.359 624,527.5C 622.887,526.24 622.72,525.073 623.5,524C 622.584,523.722 621.918,523.222 621.5,522.5C 643.837,512.342 664.504,499.676 683.5,484.5 Z"/></g>
<g><path style="opacity:1" fill="#26babb" d="M 568.5,481.5 C 569.525,481.897 569.692,482.563 569,483.5C 567.647,484.685 566.48,486.019 565.5,487.5C 566.919,489.336 568.086,491.336 569,493.5C 569.333,493.167 569.667,492.833 570,492.5C 572.139,493.625 573.306,494.958 573.5,496.5C 575.07,496.306 576.57,496.306 578,496.5C 578.333,495.833 578.667,495.167 579,494.5C 580.617,495.536 580.784,496.703 579.5,498C 581.058,498.21 582.391,498.71 583.5,499.5C 572.171,512.162 560.504,524.495 548.5,536.5C 548.389,535.883 548.056,535.383 547.5,535C 550.695,531.388 550.862,527.888 548,524.5C 546.284,525.552 545.284,524.886 545,522.5C 542.91,523.791 541.576,523.124 541,520.5C 540.667,520.833 540.333,521.167 540,521.5C 538.008,520.335 536.175,519.002 534.5,517.5C 546.199,505.802 557.532,493.802 568.5,481.5 Z"/></g>
<g><path style="opacity:1" fill="#25bfbd" d="M 621.5,522.5 C 621.918,523.222 622.584,523.722 623.5,524C 622.72,525.073 622.887,526.24 624,527.5C 624.741,526.359 625.575,526.359 626.5,527.5C 627.192,526.975 627.692,526.308 628,525.5C 629.154,526.743 630.488,527.743 632,528.5C 632.914,527.346 633.747,527.513 634.5,529C 631.972,529.669 631.972,530.502 634.5,531.5C 637.974,529.336 638.308,530.169 635.5,534C 636.34,535.171 637.173,536.338 638,537.5C 638.333,537.167 638.667,536.833 639,536.5C 640.302,537.085 641.469,537.751 642.5,538.5C 624.813,545.843 607.813,554.51 591.5,564.5C 590.48,563.046 589.313,562.713 588,563.5C 586.933,562.809 585.766,562.309 584.5,562C 586.167,561.667 587.833,561.333 589.5,561C 586.547,558.512 583.214,556.679 579.5,555.5C 578.295,553.265 577.295,551.099 576.5,549C 581.996,545.084 587.663,541.418 593.5,538C 594.738,537.31 594.738,536.81 593.5,536.5C 602.52,531.323 611.854,526.657 621.5,522.5 Z"/></g>
<g><path style="opacity:1" fill="#38d2c4" d="M 830.5,506.5 C 833.167,506.5 835.833,506.5 838.5,506.5C 838.5,508.167 838.5,509.833 838.5,511.5C 838.16,513.679 837.16,515.512 835.5,517C 802.776,517.888 770.109,517.555 737.5,516C 729.455,525.042 721.789,534.376 714.5,544C 711.134,544.33 707.801,543.997 704.5,543C 703.549,542.282 703.383,541.449 704,540.5C 711.098,531.979 718.431,523.646 726,515.5C 727.897,512.873 729.397,510.039 730.5,507C 763.832,506.5 797.165,506.333 830.5,506.5 Z"/></g>
<g><path style="opacity:1" fill="#19acb3" d="M 491.5,518.5 C 499.112,524.775 506.446,531.442 513.5,538.5C 520.188,531.146 527.188,524.146 534.5,517.5C 536.175,519.002 538.008,520.335 540,521.5C 540.333,521.167 540.667,520.833 541,520.5C 541.576,523.124 542.91,523.791 545,522.5C 545.284,524.886 546.284,525.552 548,524.5C 550.862,527.888 550.695,531.388 547.5,535C 548.056,535.383 548.389,535.883 548.5,536.5C 538.106,545.892 528.439,555.892 519.5,566.5C 519.171,564.009 518.171,561.843 516.5,560C 517.672,559.581 518.672,558.915 519.5,558C 518.432,554.881 516.265,553.048 513,552.5C 512.493,551.004 512.993,549.837 514.5,549C 512.866,548.506 511.199,548.34 509.5,548.5C 509.66,546.801 509.494,545.134 509,543.5C 506.266,542.638 506.099,541.805 508.5,541C 506.376,539.418 504.21,539.251 502,540.5C 500.632,538.973 500.132,537.473 500.5,536C 501.167,535.667 501.833,535.333 502.5,535C 501.747,533.513 500.914,533.346 500,534.5C 499.026,532.122 498.359,532.456 498,535.5C 497.558,533.321 496.558,532.655 495,533.5C 494.544,532.256 495.044,531.423 496.5,531C 495.809,529.933 495.309,528.766 495,527.5C 494.577,528.956 493.744,529.456 492.5,529C 493.89,526.006 492.89,524.006 489.5,523C 489.833,522.667 490.167,522.333 490.5,522C 488.652,520.507 487.819,518.674 488,516.5C 488.816,517.823 489.983,518.489 491.5,518.5 Z"/></g>
<g><path style="opacity:1" fill="#e9c148" d="M 804.5,586.5 C 802.833,586.5 801.167,586.5 799.5,586.5C 796.375,585.521 793.042,585.187 789.5,585.5C 789.5,582.167 789.5,578.833 789.5,575.5C 802.5,575.5 815.5,575.5 828.5,575.5C 828.169,568.137 828.503,560.803 829.5,553.5C 832.421,554.407 835.421,554.74 838.5,554.5C 837.625,565.14 837.291,575.806 837.5,586.5C 826.5,586.5 815.5,586.5 804.5,586.5 Z"/></g>
<g><path style="opacity:1" fill="#34cec2" d="M 313.5,551.5 C 329.844,557.391 346.177,563.058 362.5,568.5C 361.761,568.369 361.094,568.536 360.5,569C 363.104,569.937 365.104,571.604 366.5,574C 365.592,577.225 364.259,580.225 362.5,583C 364.5,583.333 366.5,583.667 368.5,584C 367.185,585.395 367.519,586.395 369.5,587C 368.906,587.464 368.239,587.631 367.5,587.5C 362.233,586.184 356.9,585.184 351.5,584.5C 340.722,580.405 329.722,576.572 318.5,573C 310.559,569.97 302.892,566.47 295.5,562.5C 295.56,561.957 295.893,561.624 296.5,561.5C 299.167,562.833 301.833,564.167 304.5,565.5C 305.345,563.384 307.011,561.384 309.5,559.5C 310.308,559.808 310.975,560.308 311.5,561C 309.875,561.853 309.542,562.853 310.5,564C 307.15,565.02 307.317,566.52 311,568.5C 310.919,565.458 312.086,562.625 314.5,560C 316.98,559.04 319.48,558.207 322,557.5C 323.081,559.767 324.581,559.934 326.5,558C 321.42,556.196 316.42,554.196 311.5,552C 312.094,551.536 312.761,551.369 313.5,551.5 Z"/></g>
<g><path style="opacity:1" fill="#1fb5b8" d="M 593.5,536.5 C 594.738,536.81 594.738,537.31 593.5,538C 587.663,541.418 581.996,545.084 576.5,549C 577.295,551.099 578.295,553.265 579.5,555.5C 583.214,556.679 586.547,558.512 589.5,561C 587.833,561.333 586.167,561.667 584.5,562C 585.766,562.309 586.933,562.809 588,563.5C 589.313,562.713 590.48,563.046 591.5,564.5C 578.297,573.033 566.63,583.366 556.5,595.5C 555.791,594.596 554.791,594.263 553.5,594.5C 552.162,591.48 552.162,588.813 553.5,586.5C 551.539,588.543 550.039,587.877 549,584.5C 547.414,585.376 545.914,586.376 544.5,587.5C 544.089,586.738 543.923,585.738 544,584.5C 542.167,586.167 540.333,587.833 538.5,589.5C 538.264,588.753 537.93,587.92 537.5,587C 545.098,577.399 553.431,568.399 562.5,560C 562.272,559.601 561.938,559.435 561.5,559.5C 571.027,550.315 581.694,542.648 593.5,536.5 Z"/></g>
<g><path style="opacity:1" fill="#0e919e" d="M 656.5,571.5 C 660.514,571.334 664.514,571.501 668.5,572C 666.167,572.333 663.833,572.667 661.5,573C 663.473,573.495 665.473,573.662 667.5,573.5C 667.785,575.288 667.452,576.955 666.5,578.5C 662.493,579.664 658.993,581.664 656,584.5C 653.487,582.75 650.654,582.584 647.5,584C 647.833,584.333 648.167,584.667 648.5,585C 647.643,585.689 646.977,586.522 646.5,587.5C 650.459,588.327 654.459,588.827 658.5,589C 653.649,589.174 648.982,589.674 644.5,590.5C 621.492,590.867 599.492,595.367 578.5,604C 600.38,583.568 626.38,572.735 656.5,571.5 Z"/></g>
<g><path style="opacity:1" fill="#19a3ac" d="M 656.5,571.5 C 672.053,570.111 687.72,570.445 703.5,572.5C 703.389,573.117 703.056,573.617 702.5,574C 699.447,574.179 696.447,574.679 693.5,575.5C 692.817,578.461 691.984,578.795 691,576.5C 689.272,578.842 687.605,581.175 686,583.5C 685.667,582.5 685.333,581.5 685,580.5C 684.691,581.766 684.191,582.933 683.5,584C 684.336,585.243 684.003,586.41 682.5,587.5C 680.936,586.814 679.269,586.981 677.5,588C 678.167,588.333 678.833,588.667 679.5,589C 677.58,590.122 675.58,590.956 673.5,591.5C 663.844,590.908 654.178,590.575 644.5,590.5C 648.982,589.674 653.649,589.174 658.5,589C 654.459,588.827 650.459,588.327 646.5,587.5C 646.977,586.522 647.643,585.689 648.5,585C 648.167,584.667 647.833,584.333 647.5,584C 650.654,582.584 653.487,582.75 656,584.5C 658.993,581.664 662.493,579.664 666.5,578.5C 667.452,576.955 667.785,575.288 667.5,573.5C 665.473,573.662 663.473,573.495 661.5,573C 663.833,572.667 666.167,572.333 668.5,572C 664.514,571.501 660.514,571.334 656.5,571.5 Z"/></g>
<g><path style="opacity:1" fill="#1cb1b5" d="M 703.5,572.5 C 712.274,573.655 720.94,575.321 729.5,577.5C 728.737,578.268 727.737,578.768 726.5,579C 728.899,580.96 729.065,583.126 727,585.5C 726.086,584.346 725.253,584.513 724.5,586C 724.833,586.333 725.167,586.667 725.5,587C 722.667,587.167 721.167,588.667 721,591.5C 719.01,593.656 716.843,595.656 714.5,597.5C 715.729,598.281 717.062,598.781 718.5,599C 717.906,599.464 717.239,599.631 716.5,599.5C 701.962,597.275 687.629,594.608 673.5,591.5C 675.58,590.956 677.58,590.122 679.5,589C 678.833,588.667 678.167,588.333 677.5,588C 679.269,586.981 680.936,586.814 682.5,587.5C 684.003,586.41 684.336,585.243 683.5,584C 684.191,582.933 684.691,581.766 685,580.5C 685.333,581.5 685.667,582.5 686,583.5C 687.605,581.175 689.272,578.842 691,576.5C 691.984,578.795 692.817,578.461 693.5,575.5C 696.447,574.679 699.447,574.179 702.5,574C 703.056,573.617 703.389,573.117 703.5,572.5 Z"/></g>
<g><path style="opacity:1" fill="#1fb8ba" d="M 362.5,568.5 C 372.476,571.599 382.142,575.266 391.5,579.5C 390.962,581.238 389.962,583.238 388.5,585.5C 388.846,586.696 389.346,586.696 390,585.5C 390.084,589.289 392.251,591.789 396.5,593C 386.544,592.256 376.877,590.423 367.5,587.5C 368.239,587.631 368.906,587.464 369.5,587C 367.519,586.395 367.185,585.395 368.5,584C 366.5,583.667 364.5,583.333 362.5,583C 364.259,580.225 365.592,577.225 366.5,574C 365.104,571.604 363.104,569.937 360.5,569C 361.094,568.536 361.761,568.369 362.5,568.5 Z"/></g>
<g><path style="opacity:1" fill="#24c1bd" d="M 729.5,577.5 C 737.127,579.323 744.794,580.99 752.5,582.5C 744.916,582.343 738.083,585.01 732,590.5C 731,592.5 730,594.5 729,596.5C 727.719,596.381 726.552,596.881 725.5,598C 726.999,598.838 727.332,599.671 726.5,600.5C 722.958,600.813 719.625,600.479 716.5,599.5C 717.239,599.631 717.906,599.464 718.5,599C 717.062,598.781 715.729,598.281 714.5,597.5C 716.843,595.656 719.01,593.656 721,591.5C 721.167,588.667 722.667,587.167 725.5,587C 725.167,586.667 724.833,586.333 724.5,586C 725.253,584.513 726.086,584.346 727,585.5C 729.065,583.126 728.899,580.96 726.5,579C 727.737,578.768 728.737,578.268 729.5,577.5 Z"/></g>
<g><path style="opacity:1" fill="#36d0c3" d="M 752.5,582.5 C 764.453,584.198 776.453,585.532 788.5,586.5C 792.167,586.5 795.833,586.5 799.5,586.5C 801.167,586.5 802.833,586.5 804.5,586.5C 800.197,589.971 796.364,593.971 793,598.5C 791.644,597.62 790.144,597.286 788.5,597.5C 788.662,595.473 788.495,593.473 788,591.5C 768.37,601.064 747.87,604.064 726.5,600.5C 727.332,599.671 726.999,598.838 725.5,598C 726.552,596.881 727.719,596.381 729,596.5C 730,594.5 731,592.5 732,590.5C 738.083,585.01 744.916,582.343 752.5,582.5 Z"/></g>
<g><path style="opacity:1" fill="#d5d289" d="M 789.5,575.5 C 789.5,578.833 789.5,582.167 789.5,585.5C 793.042,585.187 796.375,585.521 799.5,586.5C 795.833,586.5 792.167,586.5 788.5,586.5C 788.185,582.629 788.518,578.962 789.5,575.5 Z"/></g>
<g><path style="opacity:1" fill="#0f96a2" d="M 391.5,579.5 C 418.374,589.538 440.207,606.205 457,629.5C 462.369,637.868 466.203,646.535 468.5,655.5C 442.454,615.974 406.121,601.141 359.5,611C 346.168,615.498 333.168,620.832 320.5,627C 285.317,640.4 254.817,633.9 229,607.5C 232.895,609.516 237.061,610.683 241.5,611C 255.936,612.112 269.936,610.112 283.5,605C 297.939,598.447 312.606,592.447 327.5,587C 335.349,584.842 343.349,584.009 351.5,584.5C 356.9,585.184 362.233,586.184 367.5,587.5C 376.877,590.423 386.544,592.256 396.5,593C 392.251,591.789 390.084,589.289 390,585.5C 389.346,586.696 388.846,586.696 388.5,585.5C 389.962,583.238 390.962,581.238 391.5,579.5 Z"/></g>
<g><path style="opacity:1" fill="#17a7b0" d="M 561.5,559.5 C 561.938,559.435 562.272,559.601 562.5,560C 553.431,568.399 545.098,577.399 537.5,587C 537.93,587.92 538.264,588.753 538.5,589.5C 540.333,587.833 542.167,586.167 544,584.5C 543.923,585.738 544.089,586.738 544.5,587.5C 545.914,586.376 547.414,585.376 549,584.5C 550.039,587.877 551.539,588.543 553.5,586.5C 552.162,588.813 552.162,591.48 553.5,594.5C 554.791,594.263 555.791,594.596 556.5,595.5C 542.771,613.624 532.771,633.624 526.5,655.5C 525.189,651.894 523.522,648.394 521.5,645C 522.167,644.667 522.833,644.333 523.5,644C 521.639,642.972 520.305,641.472 519.5,639.5C 520.902,638.158 520.569,637.324 518.5,637C 519.451,636.282 519.617,635.449 519,634.5C 518,634.833 517,635.167 516,635.5C 515.5,635 515,634.5 514.5,634C 515.5,632.333 516.5,630.667 517.5,629C 515.699,628.683 515.366,628.016 516.5,627C 512.38,623.555 512.713,620.555 517.5,618C 516.906,617.536 516.239,617.369 515.5,617.5C 526.984,595.246 542.317,575.913 561.5,559.5 Z"/></g>
<g><path style="opacity:1" fill="#33cec2" d="M 607.5,611.5 C 616.657,610.342 625.991,610.176 635.5,611C 654.419,614.813 673.419,618.147 692.5,621C 712.543,622.972 732.543,622.972 752.5,621C 725.789,639.761 696.122,647.094 663.5,643C 651.313,641.467 639.313,639.634 627.5,637.5C 621.919,636.649 615.585,636.149 608.5,636C 607.747,634.513 606.914,634.346 606,635.5C 605.355,634.354 604.522,633.354 603.5,632.5C 603.623,630.378 603.623,628.211 603.5,626C 604.313,624.686 605.313,623.519 606.5,622.5C 605.975,621.808 605.308,621.308 604.5,621C 605.471,619.796 606.471,619.296 607.5,619.5C 606.876,617.246 605.543,615.579 603.5,614.5C 603.709,613.914 604.043,613.414 604.5,613C 606.5,612.667 608.5,612.333 610.5,612C 609.552,611.517 608.552,611.351 607.5,611.5 Z"/></g>
<g><path style="opacity:1" fill="#21b9ba" d="M 607.5,611.5 C 608.552,611.351 609.552,611.517 610.5,612C 608.5,612.333 606.5,612.667 604.5,613C 604.043,613.414 603.709,613.914 603.5,614.5C 605.543,615.579 606.876,617.246 607.5,619.5C 606.471,619.296 605.471,619.796 604.5,621C 605.308,621.308 605.975,621.808 606.5,622.5C 605.313,623.519 604.313,624.686 603.5,626C 603.623,628.211 603.623,630.378 603.5,632.5C 604.522,633.354 605.355,634.354 606,635.5C 606.914,634.346 607.747,634.513 608.5,636C 615.585,636.149 621.919,636.649 627.5,637.5C 608.048,636.082 589.381,639.082 571.5,646.5C 570.602,645.842 569.602,645.176 568.5,644.5C 570.16,643.608 572.16,643.441 574.5,644C 573.366,642.984 573.699,642.317 575.5,642C 574.692,641.692 574.025,641.192 573.5,640.5C 576.862,638.118 577.195,635.451 574.5,632.5C 574.723,631.033 575.056,629.533 575.5,628C 573.317,626.795 571.984,625.295 571.5,623.5C 582.431,616.523 594.431,612.523 607.5,611.5 Z"/></g>
<g><path style="opacity:1" fill="#1aabb2" d="M 571.5,623.5 C 571.984,625.295 573.317,626.795 575.5,628C 575.056,629.533 574.723,631.033 574.5,632.5C 577.195,635.451 576.862,638.118 573.5,640.5C 574.025,641.192 574.692,641.692 575.5,642C 573.699,642.317 573.366,642.984 574.5,644C 572.16,643.441 570.16,643.608 568.5,644.5C 569.602,645.176 570.602,645.842 571.5,646.5C 561.624,651.603 552.624,657.937 544.5,665.5C 543.998,663.915 542.998,663.415 541.5,664C 542.784,665.297 542.617,666.464 541,667.5C 539,665.5 537,663.5 535,661.5C 535.155,663.811 535.155,666.144 535,668.5C 534.5,668 534,667.5 533.5,667C 534.634,665.984 534.301,665.317 532.5,665C 533.517,663.951 533.684,662.784 533,661.5C 532.346,662.696 531.846,662.696 531.5,661.5C 534.608,656.888 538.275,652.722 542.5,649C 541.906,648.536 541.239,648.369 540.5,648.5C 549.513,638.498 559.847,630.165 571.5,623.5 Z"/></g>
<g><path style="opacity:1" fill="#eac148" d="M 785.5,654.5 C 791.833,654.5 798.167,654.5 804.5,654.5C 805.559,661.798 805.726,669.131 805,676.5C 799.246,677.548 793.412,678.382 787.5,679C 783.544,685.29 778.544,690.624 772.5,695C 723.175,696.142 673.841,696.809 624.5,697C 620.888,698.139 617.554,699.806 614.5,702C 610.546,706.742 606.713,711.576 603,716.5C 588.331,731.502 573.331,746.169 558,760.5C 545.693,774.741 532.693,788.408 519,801.5C 518.333,822.167 518.333,842.833 519,863.5C 531.376,869.588 534.709,878.922 529,891.5C 523.289,898.137 516.123,900.304 507.5,898C 496.238,891.214 493.738,882.047 500,870.5C 502.13,867.77 504.797,865.77 508,864.5C 508.333,842.167 508.667,819.833 509,797.5C 543.532,761.97 577.698,726.136 611.5,690C 614.891,688.048 618.558,686.715 622.5,686C 671.167,685.667 719.833,685.333 768.5,685C 773.667,679.833 778.833,674.667 784,669.5C 784.272,664.451 784.772,659.451 785.5,654.5 Z"/></g>
<g><path style="opacity:1" fill="#3fd4c5" d="M 157.5,540.5 C 178.044,537.543 186.544,546.21 183,566.5C 181.062,572.103 177.396,576.103 172,578.5C 171.799,598.194 172.465,617.861 174,637.5C 177.842,652.343 187.342,660.843 202.5,663C 270.167,663.333 337.833,663.667 405.5,664C 411.56,665.864 417.226,668.53 422.5,672C 438.029,687.195 453.196,702.695 468,718.5C 468.667,719.167 468.667,719.833 468,720.5C 466.185,722.405 464.185,724.072 462,725.5C 447.167,710.667 432.333,695.833 417.5,681C 413.779,678.473 409.779,676.473 405.5,675C 348.653,674.181 291.82,674.347 235,675.5C 223.183,674.74 211.35,674.24 199.5,674C 179.707,670.207 167.873,658.373 164,638.5C 162.891,618.833 161.724,599.166 160.5,579.5C 151.096,575.7 146.429,568.7 146.5,558.5C 147.127,550.568 150.794,544.568 157.5,540.5 Z"/></g>
<g><path style="opacity:1" fill="#fbfcfa" d="M 161.5,550.5 C 172.04,549.197 175.874,553.53 173,563.5C 168.306,569.645 163.306,569.979 158,564.5C 155.436,558.799 156.603,554.132 161.5,550.5 Z"/></g>
<g><path style="opacity:1" fill="#38d3c5" d="M 634.5,714.5 C 664.833,714.5 695.167,714.5 725.5,714.5C 725.552,721.206 725.052,727.872 724,734.5C 718.651,734.641 713.151,734.641 707.5,734.5C 707.5,731.5 707.5,728.5 707.5,725.5C 684.831,725.333 662.164,725.5 639.5,726C 611.563,756.606 582.896,786.606 553.5,816C 551.19,816.497 548.857,816.663 546.5,816.5C 546.335,813.15 546.502,809.817 547,806.5C 577.101,776.57 606.268,745.903 634.5,714.5 Z"/></g>
<g><path style="opacity:1" fill="#3dd4c5" d="M 260.5,698.5 C 302.168,698.333 343.835,698.5 385.5,699C 404.707,717.207 422.874,736.373 440,756.5C 440.333,767.833 440.667,779.167 441,790.5C 453.892,797.51 456.892,807.51 450,820.5C 439.404,830.229 429.404,829.563 420,818.5C 415.59,806.813 418.59,797.48 429,790.5C 429.667,780.5 429.667,770.5 429,760.5C 412.5,743.333 396,726.167 379.5,709C 339.85,709.432 300.183,709.599 260.5,709.5C 260.5,705.833 260.5,702.167 260.5,698.5 Z"/></g>
<g><path style="opacity:1" fill="#fbfcfa" d="M 433.5,800.5 C 442.778,799.376 446.278,803.376 444,812.5C 439.439,818.758 434.439,819.091 429,813.5C 427.698,808.121 429.198,803.788 433.5,800.5 Z"/></g>
<g><path style="opacity:1" fill="#fefcf7" d="M 510.5,873.5 C 520.855,873.038 523.855,877.538 519.5,887C 509.821,890.983 505.654,887.816 507,877.5C 508.376,876.295 509.542,874.962 510.5,873.5 Z"/></g>
</svg>
